<?xml version="1.0" standalone="no"?>
<!DOCTYPE svg PUBLIC "-//W3C//DTD SVG 20010904//EN"
 "http://www.w3.org/TR/2001/REC-SVG-20010904/DTD/svg10.dtd">
<svg version="1.0" xmlns="http://www.w3.org/2000/svg"
 width="175.000000pt" height="175.000000pt" viewBox="0 0 175.000000 175.000000"
 preserveAspectRatio="xMidYMid meet">
<metadata>
Created by potrace 1.16, written by Peter Selinger 2001-2019
</metadata>
<g transform="translate(0.000000,175.000000) scale(0.100000,-0.100000)"
fill="#000000" stroke="none">
<path d="M839 1511 c10 -7 6 -11 -17 -16 -34 -7 -50 -22 -55 -51 -1 -10 -7
-26 -12 -34 -5 -8 -10 -21 -11 -28 -2 -8 -10 -22 -18 -31 -15 -17 -22 -51 -11
-51 3 0 17 8 32 17 l25 17 -7 -32 c-4 -19 -3 -32 3 -32 11 0 22 33 22 70 1 22
2 23 11 7 6 -9 8 -26 4 -36 -7 -24 14 -39 26 -19 8 15 31 16 62 3 13 -5 24 -1
38 14 11 11 16 21 12 21 -25 1 -36 23 -40 81 -5 73 -23 109 -56 109 -16 0 -18
-3 -8 -9z"/>
<path d="M973 1309 c29 -17 19 -37 -40 -76 -55 -35 -103 -52 -103 -37 0 4 12
27 26 51 14 25 24 46 21 49 -2 2 -12 -11 -22 -30 -21 -38 -57 -60 -72 -45 -7
7 -9 2 -8 -15 3 -21 -1 -26 -20 -26 -12 0 -34 9 -49 21 -27 22 -67 23 -74 2
-2 -7 3 -13 12 -13 9 0 16 -4 16 -8 0 -14 -45 -52 -62 -52 -9 0 -18 -9 -21
-21 -4 -16 -3 -18 9 -8 11 9 14 8 14 -9 0 -13 -9 -22 -25 -26 -14 -4 -25 -13
-25 -21 0 -13 -3 -13 -25 1 -22 15 -25 15 -31 1 -3 -9 -2 -21 2 -28 5 -8 3 -9
-7 -3 -8 5 -21 7 -29 6 -11 -2 -27 21 -49 67 -28 58 -36 67 -47 56 -8 -7 -19
-15 -26 -17 -21 -7 3 -30 27 -24 23 6 26 2 61 -81 l13 -31 -54 5 c-41 4 -61 1
-80 -11 -14 -9 -25 -12 -25 -6 0 11 -106 14 -113 3 -3 -5 -12 -53 -22 -108 -9
-55 -19 -110 -22 -122 l-5 -23 128 3 c71 1 132 6 136 11 3 5 1 20 -5 32 -7 17
-7 30 2 46 l12 23 -5 -23 c-9 -45 4 -50 38 -16 19 19 48 35 70 39 64 13 113
-25 88 -66 -16 -24 -15 -30 2 -23 7 3 16 -1 19 -8 3 -10 21 -13 61 -12 31 2
56 -1 56 -7 0 -5 5 -9 11 -9 5 0 8 4 5 9 -9 13 41 6 59 -9 10 -8 15 -9 15 -1
0 6 -4 11 -10 11 -5 0 -10 5 -10 10 0 6 7 10 15 10 8 0 15 -4 15 -9 0 -5 9 -7
20 -4 11 3 20 0 20 -6 0 -6 7 -11 15 -11 8 0 15 4 15 8 0 5 24 10 54 11 46 2
56 -1 70 -21 9 -12 16 -18 16 -13 0 6 5 3 10 -5 8 -13 10 -12 10 3 0 11 -9 21
-20 24 -23 6 -27 23 -5 23 8 0 15 -4 15 -9 0 -5 11 -8 25 -6 14 1 28 -2 31 -7
3 -4 10 -6 15 -2 16 9 129 14 129 6 0 -5 -6 -14 -12 -21 -11 -10 -10 -11 4 -6
9 4 19 16 23 28 l8 22 4 -22 c2 -13 12 -23 21 -23 15 0 15 2 2 10 -8 5 -13 10
-10 11 40 8 70 8 70 0 0 -6 5 -11 11 -11 5 0 7 5 4 10 -3 6 1 10 9 10 10 0 16
9 16 24 0 34 34 41 51 10 28 -53 137 -56 164 -4 15 29 21 153 9 185 -15 39
-97 57 -144 31 -17 -10 -30 -11 -43 -5 -10 6 -77 10 -150 10 -89 0 -134 4
-139 12 -5 8 -17 9 -47 1 -45 -12 -57 -8 -39 13 19 23 0 26 -28 4 -34 -27 -64
-28 -64 -2 0 11 -4 23 -10 26 -18 11 -10 47 22 96 23 36 36 48 47 43 9 -3 34
-11 56 -17 22 -5 47 -16 56 -23 21 -19 117 -47 136 -40 8 3 12 2 9 -2 -3 -4 4
-13 14 -20 16 -10 22 -7 41 24 25 41 16 60 -12 24 -15 -20 -18 -21 -12 -5 3
11 11 23 17 27 6 4 7 10 3 14 -4 4 -18 -2 -30 -14 -13 -12 -27 -19 -30 -15 -4
3 -7 0 -7 -8 -1 -9 -4 -8 -12 5 -8 15 -7 22 6 31 15 11 14 13 -10 19 -14 4
-33 14 -41 21 -8 8 -19 15 -24 15 -5 0 1 -11 13 -24 13 -12 28 -21 35 -19 9 4
9 -1 0 -21 -10 -21 -13 -23 -19 -8 -4 9 -7 12 -7 6 -1 -7 -15 -9 -38 -5 -34 6
-38 10 -41 39 -2 21 1 32 10 32 16 0 -32 39 -49 40 -6 0 -20 11 -31 25 -19 24
-50 36 -37 15 10 -16 -11 -12 -25 5 -7 8 -18 15 -24 15 -6 0 -3 -5 7 -11z"/>
<path d="M658 519 c-10 -5 -18 -15 -18 -22 0 -7 -9 -18 -21 -25 -15 -10 -20
-21 -16 -38 3 -19 0 -24 -15 -24 -10 0 -21 -8 -24 -17 -3 -10 -10 -26 -15 -35
-16 -31 -10 -38 34 -37 43 2 87 29 87 55 0 7 11 24 24 37 21 21 24 22 34 6 8
-13 6 -21 -14 -38 -36 -31 -28 -55 19 -59 21 -2 45 2 53 9 18 15 18 48 -1 55
-25 10 -6 24 32 24 l36 0 -22 -24 c-28 -30 -24 -56 11 -75 25 -14 29 -14 57 7
17 12 31 18 31 12 0 -6 50 -10 139 -10 132 0 140 1 146 20 8 25 -13 53 -33 45
-9 -3 -19 0 -23 7 -6 9 -13 9 -34 0 -22 -10 -29 -9 -41 3 -14 13 -13 15 5 15
24 0 37 22 39 68 2 33 -19 45 -35 20 -4 -7 -17 -18 -28 -24 -11 -6 -22 -24
-25 -39 -5 -29 -34 -55 -46 -42 -4 3 2 14 14 24 21 19 43 71 24 59 -6 -3 -18
-3 -27 0 -14 6 -14 8 0 24 15 16 14 17 -12 12 -15 -2 -36 -13 -46 -23 -10 -11
-22 -19 -27 -19 -16 0 -23 22 -9 31 10 6 6 9 -13 9 -15 0 -31 -7 -37 -17 -12
-22 -69 -19 -87 5 -7 9 -14 14 -14 9 0 -4 -16 0 -36 8 -42 18 -44 18 -66 4z"/>
<path d="M332 253 c-10 -4 -9 -9 4 -24 16 -17 16 -19 1 -19 -10 0 -17 -4 -17
-10 0 -5 7 -10 17 -10 14 0 14 -2 -2 -20 -10 -11 -14 -20 -8 -20 5 0 18 9 28
20 22 24 55 29 35 5 -21 -25 -2 -30 23 -7 24 23 51 32 29 10 -21 -21 -13 -32
9 -12 15 14 41 20 94 24 77 5 87 -3 39 -35 -25 -16 -34 -40 -11 -32 6 2 11 8
10 13 0 5 10 18 25 28 14 11 22 14 18 8 -4 -7 -3 -12 3 -12 15 0 23 18 11 25
-5 3 -10 15 -10 26 0 17 17 25 45 19 6 -1 4 4 -3 12 -7 7 -37 13 -68 13 -48 1
-58 -2 -71 -22 -20 -30 -44 -29 -73 2 -27 29 -42 25 -15 -5 16 -18 16 -20 1
-20 -9 0 -26 11 -38 25 -11 13 -25 22 -30 19 -5 -3 -2 -15 8 -25 14 -16 15
-19 2 -19 -18 0 -51 34 -41 43 7 8 4 8 -15 0z"/>
</g>
</svg>
